<?xml version="1.0" encoding="utf-8"?><svg xmlns="http://www.w3.org/2000/svg" xmlns:xlink="http://www.w3.org/1999/xlink" width="1024" height="527" preserveAspectRatio="xMidYMid" viewBox="0 0 1024 527" style="z-index:1;display:block;animation-play-state:paused" ><g transform="translate(512,263.5) scale(1,1) translate(-512,-263.5)" style="animation-play-state:paused" ><linearGradient id="lg-0.7551149815914151" x1="0" x2="1" y1="0" y2="0" style="animation-play-state:paused" ><stop stop-color="#0d1175" offset="0" style="animation-play-state:paused" ></stop>

  
<stop stop-color="#6e00db" offset="1" style="animation-play-state:paused" ></stop></linearGradient>
<path d="M0 0L0 474.3835754394531Q102.4000015258789 504.13873291015625 204.8000030517578 487.56890869140625T409.6000061035156 453.8442077636719T614.4000244140625 510.7008056640625T819.2000122070312 418.4171142578125T1024 498.0330505371094L1024 0z" fill="url(#lg-0.7551149815914151)" opacity="0.4" style="opacity:0.4;animation-play-state:paused" ></path>
<path d="M0 0L0 476.0584411621094Q102.4000015258789 480.4775695800781 204.8000030517578 446.4701232910156T409.6000061035156 490.21051025390625T614.4000244140625 496.20758056640625T819.2000122070312 484.4692077636719T1024 465.0511474609375L1024 0z" fill="url(#lg-0.7551149815914151)" opacity="0.4" style="opacity:0.4;animation-play-state:paused" ></path>
<path d="M0 0L0 495.4102478027344Q102.4000015258789 454.4572448730469 204.8000030517578 420.2270812988281T409.6000061035156 520.7144775390625T614.4000244140625 492.98114013671875T819.2000122070312 460.7431945800781T1024 453.67120361328125L1024 0z" fill="url(#lg-0.7551149815914151)" opacity="0.4" style="opacity:0.4;animation-play-state:paused" ></path>
<path d="M0 0L0 429.6803894042969Q102.4000015258789 507.0708312988281 204.8000030517578 485.154296875T409.6000061035156 502.6412658691406T614.4000244140625 413.3552551269531T819.2000122070312 465.063232421875T1024 486.3043212890625L1024 0z" fill="url(#lg-0.7551149815914151)" opacity="0.4" style="opacity:0.4;animation-play-state:paused" ></path>
<path d="M0 0L0 482.6058654785156Q102.4000015258789 514.0736694335938 204.8000030517578 495.7078552246094T409.6000061035156 463.2545471191406T614.4000244140625 471.9944152832031T819.2000122070312 469.182373046875T1024 492.19586181640625L1024 0z" fill="url(#lg-0.7551149815914151)" opacity="0.4" style="opacity:0.4;animation-play-state:paused" ></path></g></svg>