<?xml version="1.0" encoding="utf-8"?><svg xmlns="http://www.w3.org/2000/svg" xmlns:xlink="http://www.w3.org/1999/xlink" width="1112" height="491" preserveAspectRatio="xMidYMid" viewBox="0 0 1112 491" style="z-index:1;margin-right:-2px;display:block;background-repeat-y:initial;background-repeat-x:initial;animation-play-state:paused" ><g transform="translate(556,245.5) scale(1,1) translate(-556,-245.5)" style="transform:matrix(1, 0, 0, 1, 0, 0);animation-play-state:paused" ><linearGradient id="lg-0.1904057274593003" x1="0" x2="1" y1="0" y2="0" style="animation-play-state:paused" ><stop stop-color="#0d1175" offset="0" style="animation-play-state:paused" ></stop>

  
<stop stop-color="#6e00db" offset="1" style="animation-play-state:paused" ></stop></linearGradient>
<path fill="url(#lg-0.1904057274593003)" opacity="0.4" d="M 0 0 L 0 451.299 Q 111.2 437.175 222.4 404.05 T 444.8 455.149 T 667.2 407.509 T 889.6 369.308 T 1112 358.894 L 1112 0 Z" style="opacity:0.4;animation-play-state:paused" ></path>
<path fill="url(#lg-0.1904057274593003)" opacity="0.4" d="M 0 0 L 0 419.408 Q 111.2 467.843 222.4 438.791 T 444.8 411.403 T 667.2 439.853 T 889.6 396.568 T 1112 431.397 L 1112 0 Z" style="opacity:0.4;animation-play-state:paused" ></path>
<path fill="url(#lg-0.1904057274593003)" opacity="0.4" d="M 0 0 L 0 451.119 Q 111.2 474.703 222.4 442.733 T 444.8 400.459 T 667.2 445.084 T 889.6 379.498 T 1112 362.127 L 1112 0 Z" style="opacity:0.4;animation-play-state:paused" ></path>
<path fill="url(#lg-0.1904057274593003)" opacity="0.4" d="M 0 0 L 0 437.8 Q 111.2 465.496 222.4 422.417 T 444.8 408.874 T 667.2 431.881 T 889.6 376.964 T 1112 367.889 L 1112 0 Z" style="opacity:0.4;animation-play-state:paused" ></path>
<path fill="url(#lg-0.1904057274593003)" opacity="0.4" d="M 0 0 L 0 464.277 Q 111.2 473.277 222.4 447.519 T 444.8 433.918 T 667.2 383.766 T 889.6 411.169 T 1112 394.705 L 1112 0 Z" style="opacity:0.4;animation-play-state:paused" ></path></g></svg>