<?xml version="1.0" encoding="utf-8"?><svg xmlns="http://www.w3.org/2000/svg" xmlns:xlink="http://www.w3.org/1999/xlink" width="1112" height="491" preserveAspectRatio="xMidYMid" viewBox="0 0 1112 491" style="z-index:1;margin-right:-2px;display:block;background-repeat-y:initial;background-repeat-x:initial;animation-play-state:paused" ><g transform="translate(556,245.5) scale(1,1) translate(-556,-245.5)" style="transform:matrix(1, 0, 0, 1, 0, 0);animation-play-state:paused" ><linearGradient id="lg-0.26621047128994024" x1="0" x2="1" y1="0" y2="0" style="animation-play-state:paused" ><stop stop-color="#0d1175" offset="0" style="animation-play-state:paused" ></stop>

  
<stop stop-color="#b00300" offset="1" style="animation-play-state:paused" ></stop></linearGradient>
<path fill="url(#lg-0.26621047128994024)" opacity="0.4" d="M 0 0 L 0 483.479 Q 111.2 434.117 222.4 416.917 T 444.8 407.471 T 667.2 398.069 T 889.6 397.622 T 1112 372.002 L 1112 0 Z" style="opacity:0.4;animation-play-state:paused" ></path>
<path fill="url(#lg-0.26621047128994024)" opacity="0.4" d="M 0 0 L 0 442.091 Q 111.2 472.791 222.4 440.134 T 444.8 417.915 T 667.2 436.655 T 889.6 412.711 T 1112 400.413 L 1112 0 Z" style="opacity:0.4;animation-play-state:paused" ></path>
<path fill="url(#lg-0.26621047128994024)" opacity="0.4" d="M 0 0 L 0 416.894 Q 111.2 437.831 222.4 404.047 T 444.8 438.338 T 667.2 383.299 T 889.6 392.949 T 1112 426.237 L 1112 0 Z" style="opacity:0.4;animation-play-state:paused" ></path>
<path fill="url(#lg-0.26621047128994024)" opacity="0.4" d="M 0 0 L 0 418.549 Q 111.2 450.468 222.4 413.086 T 444.8 435.202 T 667.2 407.699 T 889.6 405.775 T 1112 385.662 L 1112 0 Z" style="opacity:0.4;animation-play-state:paused" ></path>
<path fill="url(#lg-0.26621047128994024)" opacity="0.4" d="M 0 0 L 0 457.898 Q 111.2 468.975 222.4 444.99 T 444.8 455.722 T 667.2 407.731 T 889.6 374.543 T 1112 370.163 L 1112 0 Z" style="opacity:0.4;animation-play-state:paused" ></path></g></svg>