<?xml version="1.0" encoding="utf-8"?><svg xmlns="http://www.w3.org/2000/svg" xmlns:xlink="http://www.w3.org/1999/xlink" width="1112" height="491" preserveAspectRatio="xMidYMid" viewBox="0 0 1112 491" style="z-index:1;margin-right:-2px;display:block;background-repeat-y:initial;background-repeat-x:initial;animation-play-state:paused" ><g transform="translate(556,245.5) scale(1,1) translate(-556,-245.5)" style="transform:matrix(1, 0, 0, 1, 0, 0);animation-play-state:paused" ><linearGradient id="lg-0.14552914309267573" x1="0" x2="1" y1="0" y2="0" style="animation-play-state:paused" ><stop stop-color="#ffffff" offset="0" style="animation-play-state:paused" ></stop>

  
<stop stop-color="#0c85e8" offset="1" style="animation-play-state:paused" ></stop></linearGradient>
<path fill="url(#lg-0.14552914309267573)" opacity="0.4" d="M 0 0 L 0 442.97 Q 111.2 450.542 222.4 422.454 T 444.8 401.734 T 667.2 388.939 T 889.6 442.294 T 1112 395.397 L 1112 0 Z" style="opacity:0.4;animation-play-state:paused" ></path>
<path fill="url(#lg-0.14552914309267573)" opacity="0.4" d="M 0 0 L 0 467.977 Q 111.2 473.888 222.4 435.121 T 444.8 394.287 T 667.2 429.195 T 889.6 391.409 T 1112 394.015 L 1112 0 Z" style="opacity:0.4;animation-play-state:paused" ></path>
<path fill="url(#lg-0.14552914309267573)" opacity="0.4" d="M 0 0 L 0 477.82 Q 111.2 460.063 222.4 416.233 T 444.8 453.426 T 667.2 380.33 T 889.6 428.457 T 1112 360.368 L 1112 0 Z" style="opacity:0.4;animation-play-state:paused" ></path>
<path fill="url(#lg-0.14552914309267573)" opacity="0.4" d="M 0 0 L 0 479.389 Q 111.2 455.307 222.4 422.821 T 444.8 413.809 T 667.2 399.302 T 889.6 383.439 T 1112 428.739 L 1112 0 Z" style="opacity:0.4;animation-play-state:paused" ></path>
<path fill="url(#lg-0.14552914309267573)" opacity="0.4" d="M 0 0 L 0 455.627 Q 111.2 447.277 222.4 416.22 T 444.8 425.036 T 667.2 395.436 T 889.6 384.645 T 1112 421.366 L 1112 0 Z" style="opacity:0.4;animation-play-state:paused" ></path></g></svg>